<svg width="60" height="60" viewBox="0 0 60 60" fill="none" xmlns="http://www.w3.org/2000/svg">
<circle cx="30" cy="30" r="30" fill="#111111"/>
<path d="M13.2188 21.8438C12.5417 21.9896 11.9167 22.1198 11.3438 22.2344C11.0938 22.2865 10.8438 22.3333 10.5938 22.375C10.3542 22.4167 10.125 22.4583 9.90625 22.5C9.6875 22.5312 9.48958 22.5573 9.3125 22.5781C9.14583 22.599 9.02083 22.6094 8.9375 22.6094C8.76042 22.6094 8.60938 22.5781 8.48438 22.5156C8.36979 22.4427 8.3125 22.3021 8.3125 22.0938V20.3438C8.3125 20.1458 8.39583 19.9688 8.5625 19.8125C8.72917 19.6458 8.98958 19.5625 9.34375 19.5625H28.7344C29.0885 19.5625 29.349 19.6458 29.5156 19.8125C29.6823 19.9688 29.7656 20.1458 29.7656 20.3438V22.0938C29.7656 22.3021 29.7031 22.4427 29.5781 22.5156C29.4635 22.5781 29.3177 22.6094 29.1406 22.6094C29.0469 22.6094 28.9167 22.599 28.75 22.5781C28.5833 22.5573 28.3906 22.5312 28.1719 22.5C27.9531 22.4583 27.7188 22.4167 27.4688 22.375C27.2292 22.3333 26.9844 22.2865 26.7344 22.2344C26.1615 22.1198 25.5365 21.9896 24.8594 21.8438V39.8594C24.8594 40.2135 24.8281 40.526 24.7656 40.7969C24.7031 41.0573 24.5833 41.2812 24.4062 41.4688C24.2396 41.6458 24.0052 41.7812 23.7031 41.875C23.401 41.9583 23.0156 42 22.5469 42H15.5781C15.0885 42 14.6875 41.9531 14.375 41.8594C14.0729 41.7656 13.8333 41.6302 13.6562 41.4531C13.4896 41.276 13.375 41.0521 13.3125 40.7812C13.25 40.5104 13.2188 40.1927 13.2188 39.8281V21.8438ZM23.5312 21.5156L22.3125 21.25V40.6875C22.5625 40.6875 22.7656 40.6823 22.9219 40.6719C23.0781 40.651 23.2031 40.6094 23.2969 40.5469C23.3906 40.474 23.4531 40.375 23.4844 40.25C23.5156 40.1146 23.5312 39.9271 23.5312 39.6875V21.5156ZM35.3125 21.8438C34.6354 21.9896 34.0104 22.1198 33.4375 22.2344C33.1875 22.2865 32.9375 22.3333 32.6875 22.375C32.4479 22.4167 32.2188 22.4583 32 22.5C31.7812 22.5312 31.5833 22.5573 31.4062 22.5781C31.2396 22.599 31.1146 22.6094 31.0312 22.6094C30.8542 22.6094 30.7031 22.5781 30.5781 22.5156C30.4635 22.4427 30.4062 22.3021 30.4062 22.0938V20.3438C30.4062 20.1458 30.4896 19.9688 30.6562 19.8125C30.8229 19.6458 31.0833 19.5625 31.4375 19.5625H50.8281C51.1823 19.5625 51.4427 19.6458 51.6094 19.8125C51.776 19.9688 51.8594 20.1458 51.8594 20.3438V22.0938C51.8594 22.3021 51.7969 22.4427 51.6719 22.5156C51.5573 22.5781 51.4115 22.6094 51.2344 22.6094C51.1406 22.6094 51.0104 22.599 50.8438 22.5781C50.6771 22.5573 50.4844 22.5312 50.2656 22.5C50.0469 22.4583 49.8125 22.4167 49.5625 22.375C49.3229 22.3333 49.0781 22.2865 48.8281 22.2344C48.2552 22.1198 47.6302 21.9896 46.9531 21.8438V39.8594C46.9531 40.2135 46.9219 40.526 46.8594 40.7969C46.7969 41.0573 46.6771 41.2812 46.5 41.4688C46.3333 41.6458 46.099 41.7812 45.7969 41.875C45.4948 41.9583 45.1094 42 44.6406 42H37.6719C37.1823 42 36.7812 41.9531 36.4688 41.8594C36.1667 41.7656 35.9271 41.6302 35.75 41.4531C35.5833 41.276 35.4688 41.0521 35.4062 40.7812C35.3438 40.5104 35.3125 40.1927 35.3125 39.8281V21.8438ZM45.625 21.5156L44.4062 21.25V40.6875C44.6562 40.6875 44.8594 40.6823 45.0156 40.6719C45.1719 40.651 45.2969 40.6094 45.3906 40.5469C45.4844 40.474 45.5469 40.375 45.5781 40.25C45.6094 40.1146 45.625 39.9271 45.625 39.6875V21.5156Z" fill="white"/>
</svg>
